<?xml version="1.0" encoding="UTF-8"?>
<svg id="_图层_1" data-name="图层 1" xmlns="http://www.w3.org/2000/svg" viewBox="0 0 1024 1024">
  <defs>
    <style>
      .cls-1 {
        fill: #05bbab;
      }

      .cls-2 {
        fill: #0094dd;
      }

      .cls-3 {
        fill: #d6436d;
      }

      .cls-4 {
        fill: #04b9ad;
      }
    </style>
  </defs>
  <path class="cls-1" d="M253.68,186.62c22.97-.06,46.06,2.17,68.68,6.03,19.33,2.87,37.98,6.73,56.59,12.75,38.3,11.57,74.47,29.53,106.85,53.02v1.61c.54.16,1.07.33,1.62.5,3.94,1.82,6.93,4.68,10.28,7.39,4.45,3.68,8.78,7.47,13,11.4,3.38-2.16,6.37-4.48,9.39-7.13,5.01-4.33,10.26-8.28,15.61-12.19q12.05-8.8,14.37-8.8v-1.61q1.35-.99,3.23-2.1c5.66-3.35,11.4-6.66,17.04-10.06,60.33-36,131.32-50.9,201.09-50.78,8.2-.1,14.55.38,20.81,6.1,4.39,4.9,5.54,10.86,5.36,17.25,0,6.87,0,13.74,0,20.62,0,18.06,0,36.12,0,54.18,0,79.89.01,159.78,0,239.67q-.1,2.27-.9,3.88h-36.95c-.27-100.21-.53-200.42-.8-303.67q-25.84,1.59-51.42,4.82c-44.06,6.76-87.24,19.74-126.1,41.94-15.92,8.69-31.31,18.32-45.87,29.17-6.31,4.61-12.47,9.33-18.3,14.55q-4.05,3.56-6.55,3.53c-2.48-1.47-5.01-4.02-7.47-6.05-21.12-18.04-44.86-32.73-69.56-45.32-14.04-7.06-18.13-9.34-32.58-15.19-43.23-16.35-89.74-27.59-136.22-26.62.04,99.71.07,199.42.1,299.13q-.1,2.13-.9,3.74h-37.76c-.15-96.34-.24-192.68-.36-289.02.01-7.59-.05-15.18-.02-22.76.04-8.59-.88-16.44,5.07-23.39.49-.43.99-.85,1.5-1.29q.73-.65,1.47-1.32c6.23-3.86,12.55-4.03,19.72-3.95Z"/>
  <path class="cls-4" d="M207.04,237.54c.39,6.43.46,12.87.79,19.3q.72,13.26-1.83,16.62c-2.79,2.43-5.93,3.77-9.4,5.05-1.34,1.34-.91,2.95-.91,4.79-.02,5.7-.04,11.45-.05,17.16-.22,75.96-.44,151.93-.64,227.9-11.83.04-23.63.07-35.46.1q-1.5-.1-2.3-.9c-.41-49.13-.11-98.27-.29-147.4-.04-25.7-.07-51.4-.09-77.1.01-6.41-.05-12.83-.01-19.24-.36-10.74,1.73-21.32,9.23-29.4,9.73-9.14,27.44-17.19,40.97-16.87Z"/>
  <path class="cls-1" d="M815.99,237.54c6.57.73,11.79,2.05,17.98,4.12,11.59,3.43,22.26,9.01,28.32,19.91,2.38,5.04,3.61,9.42,3.61,15.01,0,1.9,0,3.79,0,5.72,0,7.1-.01,14.24,0,21.35-.03,74.91-.05,149.81-.09,224.72h-37.76c-.1-82.34-.25-164.7-.4-247.05-.56-2.78-1.35-3.48-3.62-5.21-2.65-1.33-5.3-2.65-8.03-4.02v-34.54Z"/>
  <path class="cls-3" d="M511.71,349.76c19.32,1.47,20.58,17.65,24.15,32.94,3.2,13.63,6.39,27.27,9.56,40.91,14.16,58.34,25.58,117.4,40.8,175.45,8.62-22.65,21.09-62.58,27.86-80.2,7.93-19.94,12.79-57.02,42.84-41.92,10.53,7.83,15.03,24.03,21.64,35.3,5.55,11.22,11.99,21.96,17.53,33.19q1.8,3.61,1.8,5.42c66.28-.2,132.55-.26,198.83-.43,11.2-.02,22.41-.05,33.61-.05,7.6-.32,14.65.84,20.2,6.45,7.85,10.44,4.85,22.89-6.4,29.32-5.01,2.11-10.43,1.2-15.74,1.4-12.24,0-24.48.05-36.72.03-59.3-.02-118.61.06-177.91.06-13.85-.96-30.14,3.73-41.02-7.25-8.99-14.08-16.5-29-23.85-43.98h-1.61c-11.99,34.07-23.03,68.49-35.36,102.42-6.14,14.13-7.14,32.99-21.75,41.32-21.88,7.57-29.44-13.96-32.22-31.32-2.41-11.27-4.94-22.52-7.57-33.74-8.73-38.4-17.71-76.74-26.01-115.23-4.19-19.49-8.55-38.92-13.21-58.31q-.31-1.53-1.25-2.34c-12.2,48.92-24.43,97.84-36.99,146.67-5.19,19.81-11.08,44.01-13.92,53.48-2.67,9.83-4.73,18.52-13.21,24.94-11.28,6.94-25.52,1-31.15-10.41-3.77-7.93-7.16-16.05-10.75-24.07-10.97-24.85-22.18-49.57-33.77-74.13h-2.41c-1.73,5.45-5.74,9.66-9.05,14.22q-9.46,12.6-14.85,15.31c-10.23,4.83-22.34,1.99-33.32,2.68-41.13-.04-82.26-.2-123.39-.25-25.19-.04-50.37-.1-75.56-.16-12.25-1.11-27.25,3.41-37.26-5.23-11.6-11.3-3.76-31.75,12.51-31.58,45.72.09,91.46,0,137.19.07,30.72,0,61.44.03,92.16.01,4.7.08,7.32.49,11.4-1.9,4.67-6.01,8.86-12.39,12.86-18.88h1.61c1.51-4.95,5.04-8.81,7.96-13q10.56-14.32,16.95-15.92c11.29-2.16,21.83,3.25,26.16,13.96,13.12,27.27,24.31,55.49,38.11,82.44,13.86-53.72,27.88-107.41,41.27-161.25,5.31-18.31,12.97-49.96,16.93-64.14,2.63-11.64,9.02-22.49,22.34-22.29Z"/>
  <path class="cls-2" d="M157.23,607.89h37.76v140.59c45.25.07,88.77-.5,132.63,3.33,18.21,1.56,36.32,3.48,54.41,6.16,17.06,2.23,33.72,6.74,50.76,8.99-6.03-2.89-12.12-5.68-18.11-8.65-50.82-24.63-109.55-32.71-165.43-35.05-6.83-.18-13.44-2.21-18.43-7.06-4.76-5.45-4.94-11.73-4.85-18.65-.02-6.39.07-12.81.06-19.2.11-23.48.17-46.97.3-70.45h37.76c.27,25.72.53,51.43.8,77.93,21.08,2.08,42.52,3.67,63.47,7.23,16.59,2.77,32.84,6.64,49.01,11.25,28.55,8.07,56.28,18.84,82.25,33.25,17.14,9.68,34.19,19.71,49.71,31.87q1.38.92,3.04.58c2.47-.99,4.4-2.68,6.44-4.34,5.78-4.61,11.98-8.46,18.26-12.35,25.69-16.73,53.36-29.49,81.89-40.53,16.96-6.61,34.7-10.98,52.39-15.14,19.74-5,40.16-7.24,60.35-9.59,9.09-1.17,18.09-1.71,27.26-2.21.27-25.72.53-51.43.8-77.93h36.95c1.31,1.31.91,2.75.91,4.56,0,1.72.01,3.44,0,5.18.03,10.79.03,21.59.03,32.39,0,9.77.04,19.54.03,29.31,0,5.71.03,11.41.01,17.12.2,7.79-.43,14.6-6.28,20.39-4.96,4.5-9.67,6.27-16.35,6.39-1.27.04-2.53.09-3.8.13-62.19,1.53-124.76,14.95-180.23,43.61,40.14-7.24,80.25-13.87,121.01-16.35,38.52-2.29,76.47-1.53,115.18-2.13.27-46.39.53-92.79.8-140.59h37.76c.1,37.14.15,74.27.23,111.41,0,8.27.06,16.53.05,24.8.06,11.78.66,23.06-7.5,32.5-11.84,11.68-27.26,9.53-42.51,9.68-19.54-.05-39.08-.1-58.63-.11-41.73.05-83.46-.16-125.18-.14-14.54.04-29.09-.13-43.63-.06-3.41.01-6.82.01-10.23-.03q-19.37-.4-35.91,8.85c-2.66,2.31-5.69,4.02-8.6,6.03-9.49,6.16-17.02,10.66-28.64,8.25-11.27-3.49-19.57-12.63-30.09-17.59q-2.21-1.23-4.04-2.89c-4.18-2.77-9.52-1.99-14.33-1.96-7.88-.04-15.76.02-23.64-.01-33.22.01-66.44-.05-99.66-.04-33.12.02-66.25-.06-99.37-.04-9.41.02-18.81-.02-28.22,0-13.8-.15-28.14,1.83-39.03-8.34-2.68-2.9-4.85-6.08-7.08-9.34-2.6-5.09-2.84-10.34-2.76-15.95.02-7.71.01-15.43.03-23.14.05-40.63.09-81.26.16-121.89Z"/>
</svg>